<svg xmlns="http://www.w3.org/2000/svg" xmlns:xlink="http://www.w3.org/1999/xlink" width="28px" height="28px" viewBox="0 0 28 28" version="1.1">
	<!-- Generator: Sketch 43.2 (39069) - http://www.bohemiancoding.com/sketch -->
	<title>
		icon_account
	</title>
	<desc>
		Created with Sketch.
	</desc>
	<defs />
	<g id="styleguidelines" stroke="none" stroke-width="1" fill="none" fill-rule="evenodd">
		<g id="Assets" transform="translate(-554.000000, -903.000000)" fill="#000000">
			<g id="Group-4-Copy-7" transform="translate(79.000000, 148.000000)">
				<g id="icon_28" transform="translate(219.000000, 755.000000)">
					<g id="account" transform="translate(256.000000, 0.000000)">
						<path d="M9.47854 0C8.99398 0 8.61374 0.377849 8.61702 0.859L8.6268 2.614C8.62742 2.69693 8.60408 2.77828 8.5596 2.84827C8.51512 2.91826 8.45138 2.97394 8.37604 3.00859C8.07719 3.14584 7.78241 3.2575 7.50443 3.37456C7.42817 3.40593 7.34451 3.41475 7.26338 3.39998C7.18226 3.3852 7.10706 3.34744 7.04676 3.2912L5.73009 2.07382C5.35934 1.73111 4.84168 1.71788 4.49918 2.06079L2.06355 4.4998C1.72097 4.8424 1.72097 5.37543 2.06355 5.71807L3.32641 6.90434C3.39219 6.9658 3.43708 7.04632 3.45474 7.1346C3.47241 7.22288 3.46197 7.31447 3.42491 7.39652C3.29759 7.67595 3.17845 7.9791 3.02442 8.32871C2.99122 8.40427 2.93701 8.46869 2.86826 8.51433C2.7995 8.55996 2.71909 8.58489 2.63657 8.58615L0.868117 8.6148C0.865946 8.61482 0.863779 8.61482 0.861608 8.6148C0.377039 8.6148 0.000119572 8.99166 8.70097e-05 9.47632C-0.000173485 10.6248 0.000249819 11.7748 8.70097e-05 12.9233C8.70097e-05 13.4078 0.378355 13.7889 0.85905 13.7856L2.61995 13.7689C2.70061 13.7683 2.77982 13.7904 2.84853 13.8326C2.91724 13.8749 2.97272 13.9356 3.00864 14.0078C3.16005 14.31 3.28436 14.6219 3.4024 14.9711C3.4274 15.0458 3.43144 15.1259 3.41408 15.2028C3.39671 15.2796 3.35859 15.3502 3.3039 15.4069L2.06713 16.679C2.06497 16.6801 2.0628 16.6812 2.06062 16.6823C1.71799 17.0249 1.71799 17.5579 2.06062 17.9005L4.49963 20.3395C4.84221 20.6822 5.365 20.6765 5.72043 20.333L6.99923 19.0996C7.05616 19.0445 7.12719 19.0061 7.20453 18.9887C7.28187 18.9714 7.3625 18.9756 7.43756 19.0011C7.78299 19.1179 8.08295 19.2422 8.38238 19.3924C8.45332 19.4284 8.51291 19.4835 8.55449 19.5513C8.59607 19.6192 8.61802 19.6973 8.61793 19.7768L8.61304 21.5386V21.5418C8.61304 22.0251 8.99093 22.4 9.47459 22.4H12.9215C13.4061 22.4 13.7818 22.0243 13.783 21.5385L13.7879 19.7801C13.7885 19.697 13.8132 19.6159 13.8588 19.5465C13.9045 19.477 13.9693 19.4223 14.0454 19.3889C14.3702 19.2458 14.6736 19.127 14.9582 19.001C15.0379 18.9655 15.1265 18.955 15.2123 18.9709C15.2981 18.9869 15.377 19.0285 15.4386 19.0903L16.6846 20.3396C17.0265 20.6822 17.5602 20.6823 17.9029 20.3396C18.7149 19.5276 19.5265 18.7127 20.3385 17.9006C20.6811 17.558 20.6811 17.025 20.3385 16.6823L19.0791 15.4742C19.015 15.4121 18.9717 15.3317 18.9553 15.244C18.9389 15.1563 18.9501 15.0656 18.9874 14.9846C19.1098 14.7124 19.2267 14.419 19.3786 14.0751C19.4121 14.0007 19.466 13.9373 19.534 13.8923C19.6021 13.8473 19.6816 13.8226 19.7631 13.821L21.5316 13.7857C21.5337 13.7856 21.5359 13.7856 21.5381 13.7857C22.0227 13.7857 22.4005 13.4087 22.4005 12.9241V9.47722C22.4005 8.99273 22.0229 8.60593 21.5482 8.6157L19.7923 8.6502C19.7103 8.65124 19.6296 8.62882 19.5599 8.58558C19.4901 8.54233 19.4342 8.48005 19.3986 8.40609C19.2382 8.06927 19.0877 7.70792 18.9687 7.36874C18.9412 7.29059 18.9368 7.20616 18.9561 7.12558C18.9753 7.045 19.0174 6.97169 19.0773 6.91442L20.3393 5.71552C20.6792 5.37281 20.681 4.84236 20.3393 4.50063L17.9036 2.06162C17.561 1.71898 17.0358 1.72542 16.6795 2.06813L15.4108 3.28889C15.3511 3.34612 15.2762 3.38496 15.195 3.40078C15.1139 3.4166 15.0299 3.40873 14.9531 3.37812C14.6012 3.23663 14.2966 3.11264 13.9956 3.00877C13.908 2.97842 13.8325 2.9206 13.7803 2.8439C13.7282 2.7672 13.7022 2.67571 13.7062 2.58305L13.7869 0.862527C13.7869 0.377974 13.4083 0.00100613 12.9238 0.00100613H9.4802L9.47854 0ZM11.1982 4.73837C14.9946 4.77467 17.7784 7.70204 17.663 11.1872C17.6629 11.1915 17.6629 11.1959 17.663 11.2002C17.663 14.7738 14.7752 17.6616 11.2016 17.6616C7.62795 17.6616 4.74018 14.7738 4.74018 11.2002C4.74018 7.62762 7.62609 4.74054 11.1982 4.73878V4.73837ZM11.2031 5.89687C8.29277 5.89687 5.89937 8.29105 5.89937 11.2015C5.89937 14.1118 8.29277 16.5019 11.2031 16.5019C14.1135 16.5019 16.5043 14.1118 16.5043 11.2015C16.5043 8.29105 14.1135 5.89687 11.2031 5.89687Z" fill="black" />
					</g>
				</g>
			</g>
		</g>
	</g>
</svg>
